<svg width="18" height="18" viewBox="0 0 18 18" fill="none" xmlns="http://www.w3.org/2000/svg">
<path d="M8.28816 1.63786C8.69329 1.27483 9.30671 1.27483 9.71184 1.63785L11.8771 3.57812C11.9872 3.67672 12.1165 3.75139 12.2569 3.79738L15.0199 4.70246C15.5368 4.8718 15.8435 5.40303 15.7317 5.9354L15.1341 8.78073C15.1037 8.92533 15.1037 9.07467 15.1341 9.21927L15.7317 12.0646C15.8435 12.597 15.5368 13.1282 15.0199 13.2975L12.2569 14.2026C12.1165 14.2486 11.9872 14.3233 11.8771 14.4219L9.71184 16.3621C9.30671 16.7252 8.69329 16.7252 8.28816 16.3621L6.12286 14.4219C6.01282 14.3233 5.88349 14.2486 5.74308 14.2026L2.98011 13.2975C2.46316 13.1282 2.15645 12.597 2.26828 12.0646L2.86594 9.21927C2.89632 9.07467 2.89632 8.92533 2.86594 8.78073L2.26828 5.9354C2.15645 5.40303 2.46316 4.8718 2.98011 4.70246L5.74308 3.79738C5.88349 3.75139 6.01282 3.67672 6.12286 3.57812L8.28816 1.63786Z" stroke="#7AE7FF" stroke-width="1.6"/>
<path d="M12 9C12 10.6569 10.6569 12 9 12C7.34315 12 6 10.6569 6 9C6 7.34315 7.34315 6 9 6C10.6569 6 12 7.34315 12 9Z" stroke="#7AE7FF" stroke-width="1.5"/>
</svg>
